<svg id="Layer_1" data-name="Layer 1" xmlns="http://www.w3.org/2000/svg" viewBox="0 0 50 50"><path d="M41.66,40.68a7,7,0,0,1-2.6.77.73.73,0,0,0-.51.28.74.74,0,0,0-.14.56,4.85,4.85,0,0,1,.06.71c0,3-2.9,5.53-6.46,5.53a6.57,6.57,0,0,1-5.95-3.37,1.29,1.29,0,0,0-.51-.55V35.36h.17c1.43-.05,3.21-.11,4.2.85a3.44,3.44,0,0,1,.89,2.28,2.21,2.21,0,1,0,1.47,0,5,5,0,0,0-1.34-3.33c-1.44-1.39-3.65-1.31-5.27-1.25h-.12v-4.6c7.47,0,11.24.32,11.57,4.35a2.2,2.2,0,1,0,3,2.06,2.22,2.22,0,0,0-1.49-2.08,5.29,5.29,0,0,0-4.14-5c-2.25-.7-5.33-.74-8.9-.75V23.25c3.57,0,6.65-.05,8.9-.74a5.3,5.3,0,0,0,4.14-5.06,2.19,2.19,0,1,0-1.47,0c-.33,4-4.1,4.33-11.57,4.34V17.32h.12l1.09,0a5.84,5.84,0,0,0,4.18-1.27,5,5,0,0,0,1.34-3.33,2.2,2.2,0,1,0-2.91-2.08,2.18,2.18,0,0,0,1.44,2.06A3.45,3.45,0,0,1,29.92,15c-1,1-2.77.89-4.2.84h-.17V12.69a.73.73,0,1,0-1.46,0V44.61a1.34,1.34,0,0,0-.52.56,6.55,6.55,0,0,1-5.94,3.36c-3.56,0-6.46-2.48-6.46-5.53a4.85,4.85,0,0,1,.06-.71,3.89,3.89,0,0,1,1-2,.74.74,0,1,0-1-1.06A5.21,5.21,0,0,0,10,41.36a6.64,6.64,0,0,1-4.14-2.54.73.73,0,1,0-1.19.85A7.93,7.93,0,0,0,9.71,42.8V43c0,3.85,3.55,7,7.92,7a8.06,8.06,0,0,0,7.19-4A8.06,8.06,0,0,0,32,50c4.37,0,7.92-3.14,7.92-7v-.2A8.1,8.1,0,0,0,42.34,42a.72.72,0,0,0,.31-1,.73.73,0,0,0-1-.31Zm-10.09-.86a.73.73,0,1,1,0,1.46.73.73,0,1,1,0-1.46ZM37.88,35a.73.73,0,1,1-.74.73A.73.73,0,0,1,37.88,35Zm0-20.33a.74.74,0,1,1-.74.73A.73.73,0,0,1,37.88,14.64Zm-6.31-4.7a.73.73,0,1,1-.74.73A.73.73,0,0,1,31.57,9.94Z" transform="translate(0.18)"/><path d="M4.88,36a5.19,5.19,0,0,1,1.53-3.62.73.73,0,0,0,.18-.72.72.72,0,0,0-.54-.51,5.76,5.76,0,0,1-4.77-5.33,5.44,5.44,0,0,1,2-4.13.75.75,0,0,0,.26-.54.74.74,0,0,0-.23-.54A3.7,3.7,0,0,1,2.18,18c0-2.15,2-3.89,4.52-3.95a3.29,3.29,0,0,1,1.91.71.74.74,0,0,0,.49.18.71.71,0,0,0,.54-.24.74.74,0,0,0-.06-1,4.76,4.76,0,0,0-2.47-1,3.47,3.47,0,0,1-.43-1.65,3.78,3.78,0,0,1,1.75-3.1A.73.73,0,1,0,7.61,6.6a5.23,5.23,0,0,0-2.4,4.31,4.76,4.76,0,0,0,.33,1.74A5.59,5.59,0,0,0,.72,18a5,5,0,0,0,1.09,3.1,6.76,6.76,0,0,0-2,4.73,7,7,0,0,0,4.8,6.42A6.64,6.64,0,0,0,3.42,36a.73.73,0,0,0,1.46,0Z" transform="translate(0.18)"/><path d="M49.82,25.78a6.76,6.76,0,0,0-2-4.73A5,5,0,0,0,48.92,18a5.59,5.59,0,0,0-4.82-5.3,4.76,4.76,0,0,0,.33-1.74c0-3-2.75-5.43-6.13-5.43h-.21A5.94,5.94,0,0,0,36,1.8,7.42,7.42,0,0,0,31.21,0h-.1a7.17,7.17,0,0,0-6.29,3.45A7.17,7.17,0,0,0,18.53,0h-.1a7.47,7.47,0,0,0-4.81,1.8,6,6,0,0,0-2.07,3.68h-.21a.73.73,0,0,0,0,1.46c.22,0,.53,0,.81.06a.73.73,0,0,0,.6-.19A.76.76,0,0,0,13,6.22V6.14c0-2.5,2.55-4.64,5.48-4.67a5.68,5.68,0,0,1,5.14,2.78,1.39,1.39,0,0,0,.5.52V9.3a.73.73,0,1,0,1.46,0V4.77a1.32,1.32,0,0,0,.5-.52,5.68,5.68,0,0,1,5.06-2.79h.08c2.93,0,5.44,2.17,5.48,4.66a4.47,4.47,0,0,1-.81,2.41.73.73,0,0,0,.09,1,.72.72,0,0,0,.47.17A.73.73,0,0,0,37,9.48,5.29,5.29,0,0,0,38.06,7h.24c2.57,0,4.66,1.78,4.66,4a3.51,3.51,0,0,1-.61,1.95.73.73,0,0,0,0,.74.74.74,0,0,0,.63.4c2.53.06,4.52,1.8,4.52,3.95a3.7,3.7,0,0,1-1.16,2.62,3.43,3.43,0,0,1-1.82.87.73.73,0,0,0,.06,1.46h.06a4.49,4.49,0,0,0,2.17-.83,5.27,5.27,0,0,1,1.58,3.71,5.75,5.75,0,0,1-4.76,5.33.72.72,0,0,0-.54.51.71.71,0,0,0,.18.72A5.17,5.17,0,0,1,44.76,36,4.89,4.89,0,0,1,44,38.61a.73.73,0,0,0,.22,1,.71.71,0,0,0,.39.12.72.72,0,0,0,.62-.34,6.34,6.34,0,0,0,1-3.44A6.64,6.64,0,0,0,45,32.2a7,7,0,0,0,4.8-6.42Z" transform="translate(0.18)"/><path d="M8.09,25.06a.74.74,0,0,0,.69.77h0a.74.74,0,0,0,.74-.69,5.19,5.19,0,0,1,3.94-4.59.73.73,0,1,0-.35-1.42,6.36,6.36,0,0,0-4.33,3.4,7.41,7.41,0,0,0-.73,2.53Z" transform="translate(0.18)"/><path d="M19.43,8.12a.72.72,0,0,0-.79.66A4.13,4.13,0,0,1,15.93,12a.74.74,0,0,0,.25,1.43,1,1,0,0,0,.24,0c.14-.05,3.37-1.22,3.67-4.46A.72.72,0,0,0,19.43,8.12Z" transform="translate(0.18)"/><path d="M18.84,40.76a.92.92,0,0,0,.32.07.74.74,0,0,0,.31-1.4,4.85,4.85,0,0,1-2.56-4.66.73.73,0,0,0-1.46-.14c0,.18-.36,4.34,3.39,6.13Z" transform="translate(0.18)"/><path d="M17.11,27.16a.73.73,0,0,0-.35,1,.75.75,0,0,0,.66.42.72.72,0,0,0,.32-.08,4,4,0,0,0,2.14-3.86.73.73,0,0,0-1.46.14A2.48,2.48,0,0,1,17.11,27.16Z" transform="translate(0.18)"/><path d="M34.52,25.61a.74.74,0,1,0,.73-.73A.73.73,0,0,0,34.52,25.61Z" transform="translate(0.18)"/><path d="M40.23,26.34a.73.73,0,1,0,0-1.46.73.73,0,1,0,0,1.46Z" transform="translate(0.18)"/><path d="M30.84,45.78a.73.73,0,1,0,1.46,0,.73.73,0,1,0-1.46,0Z" transform="translate(0.18)"/><path d="M32.3,5.44a.73.73,0,1,0-.73.74A.73.73,0,0,0,32.3,5.44Z" transform="translate(0.18)"/></svg>