<svg id="Layer_1" data-name="Layer 1" xmlns="http://www.w3.org/2000/svg" viewBox="0 0 50 50"><path d="M39.59,1.67a5.67,5.67,0,0,0-8,0L2.86,30.36A4.69,4.69,0,0,0,1.59,32.7L0,40.08A1,1,0,0,0,.29,41a.94.94,0,0,0,.69.29l.2,0,7.38-1.57A4.69,4.69,0,0,0,10.9,38.4L39.59,9.71a5.69,5.69,0,0,0,0-8ZM29.11,6.87l5.28,5.28-1.06,1L28.06,7.93Zm-4.87,4.87,2,1.95L8,31.87a2.46,2.46,0,0,1-1.79-.72,2.6,2.6,0,0,1-.55-.84ZM2.71,36.84l1.71,1.71L2.24,39Zm5.45.92-1.46.31L3.19,34.56,3.5,33.1a2.68,2.68,0,0,1,.73-1.34,4.91,4.91,0,0,0,.61.77A4.39,4.39,0,0,0,7.46,33.8a4.39,4.39,0,0,0,1.27,2.62A4.91,4.91,0,0,0,9.5,37,2.68,2.68,0,0,1,8.16,37.76ZM11,35.59a2.48,2.48,0,0,1-.84-.56,2.44,2.44,0,0,1-.72-1.78L27.57,15.07,29.52,17Zm20-20-5.28-5.28,1.05-1L32,14.58Zm7.31-7.32-2.44,2.45L30.49,5.49l2.44-2.44a3.73,3.73,0,0,1,5.28,5.27Z" transform="translate(0 0)"/><path d="M50,33.37V9.61a2.5,2.5,0,0,0-4.27-1.77L7.84,45.73A2.5,2.5,0,0,0,9.6,50H47.5A2.5,2.5,0,0,0,50,47.5V33.37Zm-2,14.13a.55.55,0,0,1-.55.55H9.6a.52.52,0,0,1-.5-.34.51.51,0,0,1,.12-.6l3.45-3.46,1.4,1.4a1,1,0,0,0,1.38,0,1,1,0,0,0,0-1.38l-1.4-1.4,4.54-4.54,1.4,1.4a1,1,0,0,0,1.38,0,1,1,0,0,0,0-1.38L20,36.35l4.54-4.54,1.4,1.4a1,1,0,0,0,1.38,0,1,1,0,0,0,0-1.38l-1.4-1.4,4.54-4.54,1.4,1.4a1,1,0,0,0,1.38,0,1,1,0,0,0,0-1.38l-1.4-1.4L36.35,20l1.4,1.4a1,1,0,0,0,1.38,0,1,1,0,0,0,0-1.38l-1.4-1.4,4.54-4.54,1.4,1.4a1,1,0,0,0,1.38,0,1,1,0,0,0,0-1.38l-1.4-1.4,3.46-3.45a.55.55,0,0,1,.94.39V47.5Z" transform="translate(0 0)"/><path d="M41.5,21.73,21.73,41.5a1,1,0,0,0,.69,1.66H42.19a1,1,0,0,0,.69-.28,1,1,0,0,0,.28-.69V22.43a1,1,0,0,0-.6-.91,1,1,0,0,0-1.06.21Zm-.29,19.48H24.78L41.21,24.78Z" transform="translate(0 0)"/></svg>