<svg id="Layer_1" data-name="Layer 1" xmlns="http://www.w3.org/2000/svg" viewBox="0 0 49 50"><defs><style>.cls-1{fill:none;stroke:#000;stroke-linecap:round;stroke-miterlimit:10;stroke-width:3px;}</style></defs><path d="M25.16,7.81a9.38,9.38,0,0,0-9.37,9.38,1.56,1.56,0,1,0,3.12,0,6.26,6.26,0,0,1,6.25-6.25,1.57,1.57,0,1,0,0-3.13Zm-7.8,37a1.53,1.53,0,0,0,.26.86L20,49.3a1.56,1.56,0,0,0,1.3.7H29a1.53,1.53,0,0,0,1.3-.7l2.4-3.6a1.53,1.53,0,0,0,.26-.86V40.62H17.35ZM25.16,0A17.18,17.18,0,0,0,12.23,28.49a28.09,28.09,0,0,1,5.12,9H22a4.62,4.62,0,0,0-.21-1.38A31,31,0,0,0,15.76,25.4a12.5,12.5,0,1,1,18.81,0,30.83,30.83,0,0,0-6.06,10.69,4.81,4.81,0,0,0-.22,1.4H33a27.69,27.69,0,0,1,5.12-9A17.19,17.19,0,0,0,25.16,0Z" transform="translate(-0.34)"/><line class="cls-1" x1="41.66" y1="6.26" x2="47.34" y2="3.45"/><line class="cls-1" x1="41.5" y1="33" x2="47.5" y2="35.04"/><line class="cls-1" x1="44.5" y1="19.28" x2="46.32" y2="19.28"/><line class="cls-1" x1="7.34" y1="6.26" x2="1.66" y2="3.45"/><line class="cls-1" x1="7.5" y1="33" x2="1.5" y2="35.04"/><line class="cls-1" x1="4.5" y1="19.28" x2="2.68" y2="19.28"/></svg>