<svg id="Layer_1" data-name="Layer 1" xmlns="http://www.w3.org/2000/svg" viewBox="0 0 50 50"><path d="M45.61,11.91a4.41,4.41,0,0,0-4.4,4.4v7.57a4.38,4.38,0,0,0-4.57,1l-7.93,7.93A7.26,7.26,0,0,0,26.56,38V48.54A1.47,1.47,0,0,0,28,50h8.79a1.46,1.46,0,0,0,1.46-1.46V44.85l9.57-9.57A7.28,7.28,0,0,0,50,30.1V16.31A4.4,4.4,0,0,0,45.61,11.91ZM47.07,30.1a4.38,4.38,0,0,1-1.29,3.11l-10,10a1.48,1.48,0,0,0-.43,1v2.83H29.49V38a4.38,4.38,0,0,1,1.29-3.11L38.71,27a1.46,1.46,0,1,1,2.07,2.07L37,32.85a1.47,1.47,0,1,0,2.08,2.07l3.78-3.79A4.36,4.36,0,0,0,44.14,28V16.31a1.47,1.47,0,1,1,2.93,0Z"/><path d="M13.36,24.92a4.39,4.39,0,0,0-4.57-1V16.31a4.4,4.4,0,1,0-8.79,0V30.1a7.28,7.28,0,0,0,2.15,5.18l9.57,9.57v3.69A1.46,1.46,0,0,0,13.18,50H22a1.47,1.47,0,0,0,1.47-1.46V38a7.24,7.24,0,0,0-2.15-5.18Zm7.15,22.15H14.65V44.24a1.48,1.48,0,0,0-.43-1l-10-10A4.38,4.38,0,0,1,2.93,30.1V16.31a1.47,1.47,0,1,1,2.93,0V28a4.36,4.36,0,0,0,1.29,3.1l3.78,3.79A1.47,1.47,0,1,0,13,32.85L9.22,29.06A1.46,1.46,0,1,1,11.29,27l7.93,7.93A4.38,4.38,0,0,1,20.51,38Z"/><path d="M19.11,11.69a13.22,13.22,0,0,1,2.15,5.89H19.14A1.46,1.46,0,0,0,17.68,19V24.9a1.46,1.46,0,0,0,1.46,1.47H30.86a1.46,1.46,0,0,0,1.46-1.47V19a1.46,1.46,0,0,0-1.46-1.46H28.74a13.26,13.26,0,0,1,2.15-5.89,8,8,0,0,0,5.27-2.23,7.16,7.16,0,0,0,2-5.07V1.46A1.46,1.46,0,0,0,36.72,0H13.28a1.46,1.46,0,0,0-1.46,1.46V4.39a7.1,7.1,0,0,0,2.06,5.1A8,8,0,0,0,19.11,11.69ZM29.39,23.44H20.61V20.51h8.78ZM24.2,17.58a16.1,16.1,0,0,0-2.82-7.76,4.34,4.34,0,0,1-.77-2.5V2.93h8.78V7.32a4.34,4.34,0,0,1-.77,2.5,16.1,16.1,0,0,0-2.82,7.76ZM35.25,4.39a4.1,4.1,0,0,1-3,4.1,7.49,7.49,0,0,0,.09-1.17V2.93h2.93ZM14.75,2.93h2.93V7.32a7.46,7.46,0,0,0,.09,1.16,4.18,4.18,0,0,1-3-4.09Z"/></svg>