<svg id="Layer_1" data-name="Layer 1" xmlns="http://www.w3.org/2000/svg" viewBox="0 0 39.97 39.27"><defs><style>.cls-1{fill:#999;}</style></defs><path class="cls-1" d="M18.58,29.38a.59.59,0,1,0,0,1.17h2.81a.59.59,0,1,0,0-1.17Z" transform="translate(0 -0.73)"/><path class="cls-1" d="M7,20.29H10.9a1.63,1.63,0,0,0,3,0h.78a.59.59,0,0,0,0-1.17H14a1.63,1.63,0,0,0-3,0H7a.59.59,0,1,0,0,1.17Zm5.4-1.05a.47.47,0,1,1-.47.47A.47.47,0,0,1,12.43,19.24Z" transform="translate(0 -0.73)"/><path class="cls-1" d="M7,16.93h.74A1.65,1.65,0,0,0,9.3,18a1.63,1.63,0,0,0,1.53-1.06h3.9a.58.58,0,0,0,.58-.58.59.59,0,0,0-.58-.59h-3.9a1.64,1.64,0,0,0-1.53-1,1.66,1.66,0,0,0-1.53,1H7a.59.59,0,0,0-.59.59A.58.58,0,0,0,7,16.93Zm2.27-1a.47.47,0,1,1-.47.47A.47.47,0,0,1,9.3,15.88Z" transform="translate(0 -0.73)"/><circle class="cls-1" cx="14.85" cy="10.23" r="0.59"/><circle class="cls-1" cx="13.23" cy="10.23" r="0.59"/><circle class="cls-1" cx="11.62" cy="10.23" r="0.59"/><path class="cls-1" d="M38.21,4.32H38l.17-.16a1.26,1.26,0,0,0,0-1.78L36.88,1.1a1.26,1.26,0,0,0-1.78,0L31.88,4.32H1.76A1.76,1.76,0,0,0,0,6.08V30.39a2.15,2.15,0,0,0,2.15,2.15H16v4.14H13.19a1.37,1.37,0,0,0-1.36,1.37v.58A1.36,1.36,0,0,0,13.19,40H26.78a1.36,1.36,0,0,0,1.36-1.37v-.58a1.37,1.37,0,0,0-1.36-1.37H24V32.54h6.25a.59.59,0,1,0,0-1.17H2.15a1,1,0,0,1-1-1V28.66H38.8v1.73a1,1,0,0,1-1,1H32.94a.59.59,0,0,0,0,1.17h4.88A2.15,2.15,0,0,0,40,30.39V6.08a1.76,1.76,0,0,0-1.76-1.76ZM26.78,37.85a.2.2,0,0,1,.19.2v.58a.2.2,0,0,1-.19.2H13.19a.2.2,0,0,1-.19-.2v-.58a.2.2,0,0,1,.19-.2Zm-9.59-5.31h5.59v4.14H17.19ZM35.93,1.93a.09.09,0,0,1,.12,0l1.28,1.28a.09.09,0,0,1,0,.12L36.11,4.55,34.7,3.15ZM33.88,4l1.4,1.4-.41.41-1.4-1.4ZM32.64,5.22,34,6.62l-6.93,6.93-1.4-1.41Zm-.87,5.35A1.45,1.45,0,1,1,30.33,12v0l1.42-1.42ZM26.1,14.19l-1.74.7.71-1.73Zm12.7,13.3H1.17V6.08a.59.59,0,0,1,.59-.59h29l-.9.9H9.91a.59.59,0,0,0,0,1.17H28.64l-4.13,4.13a1.27,1.27,0,0,0-.27.41l-1.31,3.2a.77.77,0,0,0,.18.85.78.78,0,0,0,.55.23.8.8,0,0,0,.3-.06l3.2-1.3a1.09,1.09,0,0,0,.4-.27L29.34,13a2.62,2.62,0,1,0,3.39-3.39l2-2h2V25.43h-.32L34.3,21.75a.58.58,0,0,0-1,.59l1.78,3.09H26.89L26,23.91l4.09-7.09L31.92,20a.58.58,0,0,0,.8.21.59.59,0,0,0,.22-.8L31,16a1,1,0,0,0-1.79,0l-3.87,6.71-5-8.61a1,1,0,0,0-.89-.52,1,1,0,0,0-.89.52l-1.32,2.29V10.14A1.38,1.38,0,0,0,15.9,8.77h-10a1.37,1.37,0,0,0-1.36,1.37v12.8a1,1,0,0,0,1,1h7.47l-.87,1.51H3.23V7.56h4a.59.59,0,1,0,0-1.17H3a1,1,0,0,0-1,1V25.62a1,1,0,0,0,1,1H36.93a1,1,0,0,0,1-1V7.36a1,1,0,0,0-1-1h-1l.89-.9h1.39a.59.59,0,0,1,.59.59ZM16.09,13.38v9.37H5.66V13.38ZM5.66,12.21V10.14a.2.2,0,0,1,.19-.2H15.9a.19.19,0,0,1,.19.2v2.07Zm8.63,11.71h2a1,1,0,0,0,1-1V21.7a1.1,1.1,0,0,0,1.43-.44l1-1.73a.13.13,0,0,1,.22,0l.61,1.07a1.11,1.11,0,0,0,1.92,0l.15-.27,2.94,5.1H13.42Zm3-4.18v-1l2.21-3.84,2.44,4.24-.43.75-.56-1a1.29,1.29,0,0,0-2.24,0l-.94,1.62Z" transform="translate(0 -0.73)"/></svg>