<svg id="Layer_1" data-name="Layer 1" xmlns="http://www.w3.org/2000/svg" viewBox="0 0 39.95 38.26"><defs><style>.cls-1{fill:#999;}</style></defs><path class="cls-1" d="M36.82,8.92a.59.59,0,0,0-1.13.33A4.73,4.73,0,0,1,35.23,13a4.81,4.81,0,0,1-1.71,1.73l-.25.15a.61.61,0,0,0-.28.5v.74H31.62V13.76a1.63,1.63,0,0,0,1.08-1.53V11a1.64,1.64,0,0,0-1.64-1.63H31A1.63,1.63,0,0,0,29.37,11v1.28a1.63,1.63,0,0,0,1.08,1.53v2.38H29.08V15.4a.59.59,0,0,0-.29-.5l-.24-.15a4.81,4.81,0,0,1-2.37-4.15,4.85,4.85,0,0,1,8.24-3.46.58.58,0,1,0,.81-.84,6,6,0,0,0-9.41,7.31,6.17,6.17,0,0,0,2.09,2.13v.5a.94.94,0,0,0-.53.84v2.67a.94.94,0,0,0,.94.94h.87v.82a1,1,0,0,0,1,1h1.65a1,1,0,0,0,1-1v-.82h.87a.94.94,0,0,0,.93-.94V17.08a.93.93,0,0,0-.52-.84v-.5a6.17,6.17,0,0,0,2.09-2.13,6,6,0,0,0,.57-4.69Zm-6.28,2a.47.47,0,0,1,.46-.46h.06a.47.47,0,0,1,.47.46v1.28a.47.47,0,0,1-.47.46H31a.47.47,0,0,1-.46-.46Zm1.17,10.41H30.36v-.67h1.35Zm1.8-1.84h-5V17.31h5Z" transform="translate(-0.02 -1.74)"/><path class="cls-1" d="M31,3.88a.59.59,0,0,0,.59-.59v-1a.59.59,0,0,0-1.17,0v1A.59.59,0,0,0,31,3.88Z" transform="translate(-0.02 -1.74)"/><path class="cls-1" d="M27.46,4.19a.6.6,0,0,0,.54.34.46.46,0,0,0,.23,0,.58.58,0,0,0,.3-.77l-.4-.89a.59.59,0,0,0-1.07.48Z" transform="translate(-0.02 -1.74)"/><path class="cls-1" d="M24.37,5.57l.73.65a.58.58,0,0,0,.39.15.57.57,0,0,0,.43-.2.59.59,0,0,0,0-.83l-.73-.64a.57.57,0,0,0-.82,0A.59.59,0,0,0,24.37,5.57Z" transform="translate(-0.02 -1.74)"/><path class="cls-1" d="M22.84,8.74l.93.29a.57.57,0,0,0,.18,0,.58.58,0,0,0,.18-1.14l-.93-.3a.57.57,0,0,0-.73.38A.59.59,0,0,0,22.84,8.74Z" transform="translate(-0.02 -1.74)"/><path class="cls-1" d="M22.68,12.25h.06l1-.11a.58.58,0,0,0,.52-.64.59.59,0,0,0-.65-.52l-1,.1a.58.58,0,0,0-.51.65A.58.58,0,0,0,22.68,12.25Z" transform="translate(-0.02 -1.74)"/><path class="cls-1" d="M23.49,14.49a.59.59,0,0,0-.21.8.58.58,0,0,0,.8.21l.84-.49a.58.58,0,0,0-.59-1Z" transform="translate(-0.02 -1.74)"/><path class="cls-1" d="M33.83,4.48a.52.52,0,0,0,.24,0,.6.6,0,0,0,.54-.34L35,3.3a.58.58,0,1,0-1.06-.48l-.4.89A.59.59,0,0,0,33.83,4.48Z" transform="translate(-0.02 -1.74)"/><path class="cls-1" d="M36.58,6.37A.58.58,0,0,0,37,6.22l.72-.65a.58.58,0,1,0-.78-.87l-.72.64a.59.59,0,0,0,.39,1Z" transform="translate(-0.02 -1.74)"/><path class="cls-1" d="M37.56,8.65a.59.59,0,0,0,.56.41.57.57,0,0,0,.18,0l.92-.29A.59.59,0,0,0,39.6,8a.58.58,0,0,0-.73-.38l-.93.3A.58.58,0,0,0,37.56,8.65Z" transform="translate(-0.02 -1.74)"/><path class="cls-1" d="M39.45,11.08l-1-.1a.58.58,0,1,0-.13,1.16l1,.11h.06a.58.58,0,0,0,.58-.52A.59.59,0,0,0,39.45,11.08Z" transform="translate(-0.02 -1.74)"/><path class="cls-1" d="M38.57,14.49,37.73,14a.58.58,0,0,0-.8.21.59.59,0,0,0,.21.8l.84.49a.67.67,0,0,0,.3.08.61.61,0,0,0,.51-.29A.59.59,0,0,0,38.57,14.49Z" transform="translate(-0.02 -1.74)"/><path class="cls-1" d="M6.55,15.23h5.93a.59.59,0,1,0,0-1.17H6.55a.59.59,0,1,0,0,1.17Z" transform="translate(-0.02 -1.74)"/><path class="cls-1" d="M3.81,30h11.4a.58.58,0,0,0,.59-.58.59.59,0,0,0-.59-.59H3.81a.59.59,0,0,0-.58.59A.58.58,0,0,0,3.81,30Z" transform="translate(-0.02 -1.74)"/><path class="cls-1" d="M22.93,23.71a3.47,3.47,0,1,0-3.47,3.47A3.48,3.48,0,0,0,22.93,23.71Zm-3.47-2.3a2.3,2.3,0,0,1,2.29,2.18l-.28,0a2.31,2.31,0,0,1-2.3-2.18Zm-2.3,2.3a2.3,2.3,0,0,1,.89-1.81,3.48,3.48,0,0,0,3.42,2.88h0a2.3,2.3,0,0,1-4.33-1.07Z" transform="translate(-0.02 -1.74)"/><path class="cls-1" d="M33.62,33l-3-1.61A3.49,3.49,0,0,0,29.18,31H19V29.1h.46a9.79,9.79,0,0,0,8.46-4.9,1,1,0,0,0,0-1,9.77,9.77,0,0,0-8.46-4.91H19V11.05a1,1,0,0,0-1-1H7.28a.59.59,0,0,0,0,1.17H17.83v7.2a10,10,0,0,0-1.23.29v-.51a1,1,0,0,0-1-1H3.4a1,1,0,0,0-1,1v8.16a1,1,0,0,0,1,1H13.89A9.84,9.84,0,0,0,17.83,29v2h-7a1.23,1.23,0,0,0-1,.6H3.81a.59.59,0,0,0,0,1.17H9.57v1.6H3.81a.59.59,0,0,0-.58.59.58.58,0,0,0,.58.58H9.58a1.22,1.22,0,0,0,1.21,1.08h7v2.25H1.2V11.25H4.47a.59.59,0,1,0,0-1.17H1a1,1,0,0,0-1,1V39a1,1,0,0,0,1,1H18a1,1,0,0,0,1-1V36.58H29.18a3.63,3.63,0,0,0,1.48-.37l3-1.62a.94.94,0,0,0,.54-.82A1,1,0,0,0,33.62,33ZM13.27,35.41H10.79a.05.05,0,0,1,0,0V32.18a0,0,0,0,1,0,0h2.48ZM3.6,26.19V18.43H15.43v.76a9.71,9.71,0,0,0-4.43,4,1,1,0,0,0,0,1,9.74,9.74,0,0,0,1.5,2Zm8.46-2.48a8.59,8.59,0,0,1,14.8,0,8.59,8.59,0,0,1-14.8,0Zm16.28,9.48H25.93a.58.58,0,0,0-.58.58.59.59,0,0,0,.58.59h2.41v1H14.44v-1H23.2a.59.59,0,0,0,.58-.59.58.58,0,0,0-.58-.58H14.44V32.13h13.9Zm2.42,1.62-.66.37a2.56,2.56,0,0,1-.59.19v-3.2a2.56,2.56,0,0,1,.59.19l.66.37Zm1.17-.63v-.81l.75.4Z" transform="translate(-0.02 -1.74)"/></svg>