<svg id="Layer_1" data-name="Layer 1" xmlns="http://www.w3.org/2000/svg" viewBox="0 0 40 40"><defs><style>.cls-1{fill:#999;}</style></defs><path class="cls-1" d="M34.17,8.33a4.17,4.17,0,1,1,4.16-4.16A4.17,4.17,0,0,1,34.17,8.33Zm0-6.66a2.5,2.5,0,1,0,2.5,2.5A2.5,2.5,0,0,0,34.17,1.67Z"/><path class="cls-1" d="M39.17,10a.82.82,0,0,1-.59-.24l-2.5-2.5a.83.83,0,0,1,1.18-1.18l2.5,2.5a.85.85,0,0,1,0,1.18A.86.86,0,0,1,39.17,10Z"/><path class="cls-1" d="M24.17,10H2.5A2.5,2.5,0,0,1,0,7.5v-5A2.5,2.5,0,0,1,2.5,0H24.17a2.51,2.51,0,0,1,2.5,2.5v5A2.51,2.51,0,0,1,24.17,10ZM2.5,1.67a.83.83,0,0,0-.83.83v5a.83.83,0,0,0,.83.83H24.17A.83.83,0,0,0,25,7.5v-5a.83.83,0,0,0-.83-.83Z"/><path class="cls-1" d="M37.5,40H2.5A2.5,2.5,0,0,1,0,37.5V15.83a2.51,2.51,0,0,1,2.5-2.5h35a2.51,2.51,0,0,1,2.5,2.5V37.5A2.5,2.5,0,0,1,37.5,40ZM2.5,15a.83.83,0,0,0-.83.83V37.5a.83.83,0,0,0,.83.83h35a.83.83,0,0,0,.83-.83V15.83A.83.83,0,0,0,37.5,15Z"/><path class="cls-1" d="M14.17,34.12a.84.84,0,0,1-.44-.13.83.83,0,0,1-.4-.71V20a.83.83,0,0,1,.4-.71.86.86,0,0,1,.81,0l13.33,6.67a.83.83,0,0,1,0,1.49L14.54,34a.84.84,0,0,1-.37.09ZM15,21.3V31.93l10.64-5.31Z"/></svg>