<?xml version="1.0" encoding="utf-8"?>
<!-- Generator: Adobe Illustrator 25.0.0, SVG Export Plug-In . SVG Version: 6.00 Build 0)  -->
<svg version="1.1" id="Layer_1" xmlns="http://www.w3.org/2000/svg" xmlns:xlink="http://www.w3.org/1999/xlink" x="0px" y="0px"
	 viewBox="0 0 791.7 173.8" style="enable-background:new 0 0 791.7 173.8;" xml:space="preserve">
<style type="text/css">
	.st0{fill:#F5F5F5;}
</style>
<g>
	<g>
		<rect x="498.5" y="32.3" class="st0" width="33.5" height="109.1"/>
	</g>
	<g>
		<polygon class="st0" points="434.3,87.3 488.3,141.4 440.9,141.4 386.8,87.3 441.8,32.3 489.2,32.3 		"/>
	</g>
	<g>
		<polygon class="st0" points="624.4,98.5 575.3,32.4 541.3,32.4 541.3,141.5 573.3,141.5 573.3,75.1 622,141.5 656.3,141.5 
			656.3,32.4 624.4,32.4 		"/>
	</g>
	<g>
		<polygon class="st0" points="740.7,32.4 716.4,32.4 665.6,141.5 701.6,141.5 728.6,81.8 755.7,141.5 791.7,141.5 		"/>
	</g>
	<g>
		<polygon class="st0" points="290.2,59.1 290.2,32.3 194.6,32.3 194.6,141.4 290.2,141.4 290.2,114.6 228.1,114.6 228.1,100.2 
			270.8,100.2 270.8,73.5 228.1,73.5 228.1,59.1 		"/>
	</g>
	<path class="st0" d="M375.8,130.4c-8.3,7.8-23.6,10.9-35.4,11v0h-37.6v-26.6h39.9c3.6,0,6.6-3,6.6-6.6c0-3.5-3-6.4-6.2-6.6
		c-0.1,0,0,0,0,0c-1.5-0.3-3.7-0.7-4.6-0.9c-15.2-3.3-30.8-5.6-38.9-19c-6.8-11.2-5.8-30.7,7.3-40.8c9.1-7.2,20.8-8.6,29.1-8.6h36.2
		v26.6H333c-3.1,0-5.6,2.5-5.6,5.6c0,2.5,1.7,4.7,4,5.4c0.1,0,0.1,0,0.2,0c0.2,0.1,0.4,0.1,0.6,0.2c3.7,1,9.4,2.2,13.2,3.3
		c10.1,2.9,23.6,5.8,32,13.9C387.4,97.4,389.1,117.8,375.8,130.4z"/>
</g>
<g>
	<polygon class="st0" points="83.2,87.3 136.5,140.6 89.8,140.6 36.4,87.4 90.7,33.2 137.3,33.2 	"/>
	<path class="st0" d="M154.3,19.4v134.9H50.7l-31.3-31.3V19.4H154.3 M173.8,0H0v131.1l42.7,42.7h131.1V0L173.8,0z"/>
</g>
</svg>
