<svg id="Layer_1" data-name="Layer 1" xmlns="http://www.w3.org/2000/svg" viewBox="0 0 39.55 39.87"><defs><style>.cls-1{fill:#999;}</style></defs><path class="cls-1" d="M4.24,17.38,7.12,15.5a.29.29,0,0,1,.16,0,.58.58,0,0,1,.53.54.4.4,0,0,1-.17.32L5.35,17.83l2.29,1.51a.34.34,0,0,1,.17.31.57.57,0,0,1-.53.54.29.29,0,0,1-.16,0L4.24,18.27A.57.57,0,0,1,4,17.83.58.58,0,0,1,4.24,17.38Z"/><path class="cls-1" d="M13.88,12.86a.33.33,0,0,1,0,.17l-4,8a.41.41,0,0,1-.36.21A.43.43,0,0,1,9,20.83a.5.5,0,0,1,0-.16l4-8a.31.31,0,0,1,.32-.2A.44.44,0,0,1,13.88,12.86Z"/><path class="cls-1" d="M18.67,18.27,15.8,20.15a.29.29,0,0,1-.16,0,.55.55,0,0,1-.52-.54.35.35,0,0,1,.15-.31l2.31-1.51-2.31-1.51a.41.41,0,0,1-.15-.32.56.56,0,0,1,.52-.54.29.29,0,0,1,.16,0l2.87,1.88a.56.56,0,0,1,.24.45A.51.51,0,0,1,18.67,18.27Z"/><path class="cls-1" d="M22.87,23.3V10.83a2.48,2.48,0,0,0-2.48-2.47H2.48A2.48,2.48,0,0,0,0,10.83V23.3a2.48,2.48,0,0,0,2.48,2.47H20.39A2.48,2.48,0,0,0,22.87,23.3Zm-21.7,0V10.83A1.31,1.31,0,0,1,2.48,9.52H20.39a1.31,1.31,0,0,1,1.31,1.31V23.3a1.31,1.31,0,0,1-1.31,1.31H2.48A1.31,1.31,0,0,1,1.17,23.3Z"/><path class="cls-1" d="M31.38,28.66a3,3,0,0,0-3,3,.57.57,0,0,0,0,.13s0,0,0,.06a.68.68,0,0,0,0,.14,3,3,0,1,0,3-3.37Zm0,1.17a1.87,1.87,0,0,1,1.83,1.47H29.55A1.88,1.88,0,0,1,31.38,29.83Zm0,3.74a1.87,1.87,0,0,1-1.7-1.1h3.41A1.87,1.87,0,0,1,31.38,33.57Z"/><path class="cls-1" d="M37.92,29.67h-.3a6.47,6.47,0,0,0-.4-.94l.22-.22a1.62,1.62,0,0,0,.48-1.15,1.6,1.6,0,0,0-.48-1.15l-.56-.57a1.63,1.63,0,0,0-1.16-.48,1.59,1.59,0,0,0-.92.29v-23A2.5,2.5,0,0,0,32.31,0H12.26A2.5,2.5,0,0,0,9.77,2.49V6.6a.59.59,0,1,0,1.17,0V5.2H33.63V25.54l-.22-.07v-.31a1.63,1.63,0,0,0-1.62-1.63H31a1.63,1.63,0,0,0-1.63,1.63v.27a6.82,6.82,0,0,0-1,.4l-.18-.19a1.63,1.63,0,0,0-2.31,0l-.57.57a1.64,1.64,0,0,0-.47,1.15,1.65,1.65,0,0,0,.47,1.15l.16.15a6.38,6.38,0,0,0-.43,1h-.21a1.63,1.63,0,0,0-1.62,1.63H10.94V27.53a.59.59,0,1,0-1.17,0V34a2.49,2.49,0,0,0,2.49,2.49H24.9a1.6,1.6,0,0,0,.42.75l.57.57a1.63,1.63,0,0,0,2.31,0l.11-.12a7.13,7.13,0,0,0,1,.43v.17A1.63,1.63,0,0,0,31,39.87h.81a1.63,1.63,0,0,0,1.62-1.63V38a7,7,0,0,0,1-.43l.15.15a1.63,1.63,0,0,0,2.31,0l.56-.57A1.6,1.6,0,0,0,37.92,36a1.62,1.62,0,0,0-.48-1.15l-.18-.19a6.78,6.78,0,0,0,.39-1h.27a1.63,1.63,0,0,0,1.63-1.63v-.8A1.63,1.63,0,0,0,37.92,29.67ZM10.94,4V2.49a1.32,1.32,0,0,1,1.32-1.32H32.31a1.32,1.32,0,0,1,1.32,1.32V4Zm0,29.92V32.47H23.26a1.63,1.63,0,0,0,1.58,1.26H25a7.33,7.33,0,0,0,.43,1l-.12.12a1.49,1.49,0,0,0-.28.38H12.26A1.32,1.32,0,0,1,10.94,34ZM38.39,32.1a.46.46,0,0,1-.47.46h-.43a.93.93,0,0,0-.91.69,5.65,5.65,0,0,1-.43,1,1,1,0,0,0,.17,1.11l.3.3a.46.46,0,0,1,.13.33.44.44,0,0,1-.13.33l-.57.56a.45.45,0,0,1-.33.14.45.45,0,0,1-.32-.14l-.27-.27a1,1,0,0,0-.67-.27.93.93,0,0,0-.46.12,5.4,5.4,0,0,1-1.08.46,1,1,0,0,0-.67.91v.36a.47.47,0,0,1-.46.46H31a.47.47,0,0,1-.46-.46v-.33a.94.94,0,0,0-.68-.91,5.74,5.74,0,0,1-1.12-.46.89.89,0,0,0-.45-.12,1,1,0,0,0-.67.28l-.23.23a.45.45,0,0,1-.33.14.45.45,0,0,1-.32-.14l-.57-.56A.45.45,0,0,1,26,36s0,0,0-.06a.06.06,0,0,1,0,0,.51.51,0,0,1,.12-.23l.23-.23a1,1,0,0,0,.17-1.12,5.1,5.1,0,0,1-.46-1.11,1,1,0,0,0-.91-.69h-.34a.46.46,0,0,1-.46-.46v-.8a.46.46,0,0,1,.46-.46h.37a1,1,0,0,0,.9-.67,5.19,5.19,0,0,1,.47-1.08A1,1,0,0,0,26.42,28l-.27-.26a.47.47,0,0,1-.14-.33.45.45,0,0,1,.14-.33l.57-.56a.45.45,0,0,1,.32-.14.45.45,0,0,1,.33.14l.3.3a1,1,0,0,0,.67.27,1,1,0,0,0,.44-.1,5.12,5.12,0,0,1,1.06-.43,1,1,0,0,0,.68-.91v-.44A.47.47,0,0,1,31,24.7h.81a.47.47,0,0,1,.46.46v.47a.94.94,0,0,0,.66.9,5.29,5.29,0,0,1,1,.43h0a1,1,0,0,0,.44.11,1,1,0,0,0,.67-.28l.34-.33a.45.45,0,0,1,.32-.14.45.45,0,0,1,.33.14l.57.56a.48.48,0,0,1,0,.66l-.34.33a1,1,0,0,0-.16,1.12,5.76,5.76,0,0,1,.43,1,1,1,0,0,0,.9.67h.47a.46.46,0,0,1,.47.46Z"/></svg>